<svg xmlns="http://www.w3.org/2000/svg" xmlns:xlink="http://www.w3.org/1999/xlink" width="500" zoomAndPan="magnify" viewBox="0 0 375 374.999991" height="500" preserveAspectRatio="xMidYMid meet" version="1.0"><defs><g/></defs><g fill="#d0c3f1" fill-opacity="1"><g transform="translate(176.410085, 273.355588)"><g><path d="M 6.359375 0 L 6.359375 -1.8125 L 10.1875 -1.8125 C 14.425781 -1.8125 17.726562 -2.78125 20.09375 -4.71875 C 22.457031 -6.664062 23.640625 -9.941406 23.640625 -14.546875 L 23.640625 -115.796875 C 23.640625 -120.046875 22.457031 -123.140625 20.09375 -125.078125 C 17.726562 -127.015625 14.425781 -127.984375 10.1875 -127.984375 L 6.359375 -127.984375 L 6.359375 -129.796875 L 56.359375 -129.796875 C 88.472656 -129.796875 104.53125 -119.375 104.53125 -98.53125 C 104.53125 -80.476562 92.472656 -70.539062 68.359375 -68.71875 L 68.359375 -68.359375 C 82.773438 -67.867188 93.316406 -64.65625 99.984375 -58.71875 C 106.648438 -52.78125 109.984375 -44.84375 109.984375 -34.90625 C 109.984375 -11.632812 93.925781 0 61.8125 0 Z M 44.71875 -68.90625 L 55.8125 -68.90625 C 65.257812 -68.90625 71.984375 -71.113281 75.984375 -75.53125 C 79.984375 -79.957031 81.984375 -87.320312 81.984375 -97.625 C 81.984375 -108.65625 79.953125 -116.472656 75.890625 -121.078125 C 71.835938 -125.679688 65.023438 -127.984375 55.453125 -127.984375 L 44.71875 -127.984375 Z M 44.71875 -1.8125 L 60.90625 -1.8125 C 70.476562 -1.8125 77.289062 -4.359375 81.34375 -9.453125 C 85.40625 -14.546875 87.4375 -22.96875 87.4375 -34.71875 C 87.4375 -46.351562 85.4375 -54.65625 81.4375 -59.625 C 77.445312 -64.59375 70.722656 -67.078125 61.265625 -67.078125 L 44.71875 -67.078125 Z M 44.71875 -1.8125 "/></g></g></g><g fill="#d0c3f1" fill-opacity="1"><g transform="translate(66.051804, 216.929235)"><g><path d="M 73.984375 1.8125 C 59.691406 1.8125 47.816406 -0.972656 38.359375 -6.546875 C 28.898438 -12.117188 21.835938 -19.90625 17.171875 -29.90625 C 12.515625 -39.90625 10.1875 -51.628906 10.1875 -65.078125 C 10.1875 -78.171875 12.515625 -89.71875 17.171875 -99.71875 C 21.835938 -109.71875 28.867188 -117.535156 38.265625 -123.171875 C 47.660156 -128.804688 59.507812 -131.625 73.8125 -131.625 C 87.75 -131.625 98.382812 -129.710938 105.71875 -125.890625 C 113.050781 -122.078125 116.71875 -117.257812 116.71875 -111.4375 C 116.71875 -107.320312 115.234375 -104.050781 112.265625 -101.625 C 109.296875 -99.195312 104.535156 -97.863281 97.984375 -97.625 C 97.984375 -109.132812 96.070312 -117.375 92.25 -122.34375 C 88.4375 -127.3125 81.925781 -129.796875 72.71875 -129.796875 C 63.257812 -129.796875 55.648438 -127.613281 49.890625 -123.25 C 44.140625 -118.894531 39.929688 -111.957031 37.265625 -102.4375 C 34.597656 -92.925781 33.265625 -80.472656 33.265625 -65.078125 C 33.265625 -49.566406 34.75 -37.023438 37.71875 -27.453125 C 40.6875 -17.878906 45.382812 -10.910156 51.8125 -6.546875 C 58.238281 -2.179688 66.601562 0 76.90625 0 C 79.925781 0 82.953125 -0.238281 85.984375 -0.71875 C 89.015625 -1.207031 91.742188 -1.753906 94.171875 -2.359375 L 94.171875 -46 C 94.171875 -54.351562 89.382812 -58.53125 79.8125 -58.53125 L 78.71875 -58.53125 L 78.71875 -60.359375 L 128.71875 -60.359375 L 128.71875 -58.53125 L 127.4375 -58.53125 C 122.957031 -58.53125 119.835938 -57.441406 118.078125 -55.265625 C 116.316406 -53.085938 115.4375 -49.753906 115.4375 -45.265625 L 115.4375 -6.90625 C 109.019531 -4 102.476562 -1.816406 95.8125 -0.359375 C 89.144531 1.085938 81.867188 1.8125 73.984375 1.8125 Z M 73.984375 1.8125 "/></g></g></g></svg>